<svg version="1.1" xmlns="http://www.w3.org/2000/svg" xmlns:xlink="http://www.w3.org/1999/xlink" width="48" height="48"><defs><linearGradient x1="14.92518" y1="9.1503" x2="48.27762" y2="54.0525" gradientUnits="userSpaceOnUse" id="color-1"><stop offset="0" stop-color="#000000" stop-opacity="0.13"></stop><stop offset="1" stop-color="#000000" stop-opacity="0"></stop></linearGradient><filter id="dropshadow-base"><feColorMatrix type="matrix" values="0 0 0 0 0  0 0 0 0 0  0 0 0 0 0  0 0 0 .8 0"></feColorMatrix> <feOffset dx="0" dy="1"></feOffset> <feGaussianBlur stdDeviation="1"></feGaussianBlur> <feComposite in="SourceGraphic"></feComposite></filter><filter id="dropshadow-banner" x="-10%" y="-10%" width="120%" height="130%"><feColorMatrix type="matrix" values="0 0 0 0 0  0 0 0 0 0  0 0 0 0 0  0 0 0 .4 0"></feColorMatrix> <feOffset dx="0" dy="1"></feOffset> <feGaussianBlur stdDeviation="0.5"></feGaussianBlur> <feComposite in="SourceGraphic"></feComposite></filter></defs><g fill="none" fill-rule="nonzero" stroke="none" stroke-width="none" stroke-linecap="butt" stroke-linejoin="miter" stroke-miterlimit="10" stroke-dasharray="" stroke-dashoffset="0" font-family="none" font-weight="none" font-size="none" text-anchor="none" style="mix-blend-mode: normal"><path d="M7,43c-1.10457,0 -2,-0.89543 -2,-2v-34c0,-1.10457 0.89543,-2 2,-2h34c1.10457,0 2,0.89543 2,2v34c0,1.10457 -0.89543,2 -2,2z" id="base 1 13 1 1 1 1" fill="#4caf50" stroke-width="1"></path><path d="M35.40788,42.43674v0.06599h-1.15497l0.42623,0.49726h-5.70383l-4.1503,-4.1503l-9.8998,-11.54976v-3.29994h4.12491c0.26227,0 0.5205,-0.0175 0.77358,-0.05139l-4.89851,-4.89851l1.64996,-3.29994h1.64998l-3.29994,-3.29994l1.64998,-3.29992h16.49966l9.92518,9.92518v16.86732c-1.00967,3.42808 -3.97523,6.02403 -7.59212,6.49395z" fill="url(#color-1)" stroke-width="1"></path><path d="M16.57515,9.1503h16.49967l-1.64997,3.29993h-5.37889c0.79198,0.95698 1.38597,2.07896 1.73247,3.29993h5.29639l-1.64997,3.29993h-3.29993c-0.41249,4.24041 -3.72892,7.63935 -7.91984,8.18384v0.066h-1.15498l9.8998,11.54977h-4.12492l-9.8998,-11.54977v-3.29993h4.12492c2.90394,0 5.31289,-2.14496 5.70889,-4.9499h-9.8338l1.64997,-3.29993h7.68885c-0.92398,-1.94696 -2.90394,-3.29993 -5.2139,-3.29993h-4.12492z" fill="none" stroke-width="0"></path><g stroke-width="1"><path d="M4.2004,4.2004h39.5992v39.5992h-39.5992z" fill="none"></path><path d="M17.40013,9.1503h16.49967l-1.64997,3.29993h-5.37889c0.79198,0.95698 1.38597,2.07896 1.73247,3.29993h5.29639l-1.64997,3.29993h-3.29993c-0.41249,4.24041 -3.72892,7.63935 -7.91984,8.18384v0.066h-1.15498l9.8998,11.54977h-4.12492l-9.8998,-11.54977v-3.29993h4.12492v0c2.90394,0 5.31289,-2.14496 5.70889,-4.9499h-9.8338l1.64997,-3.29993h7.68885c-0.92398,-1.94696 -2.90394,-3.29993 -5.2139,-3.29993h-4.12492z" fill="#000000"></path></g><path d="M2,24c0,-12.15026 9.84974,-22 22,-22c12.15026,0 22,9.84974 22,22c0,12.15026 -9.84974,22 -22,22c-12.15026,0 -22,-9.84974 -22,-22z" id="base 1 9 1" fill="none" stroke-width="1"></path><path d="M2,24c0,-12.15026 9.84974,-22 22,-22c12.15026,0 22,9.84974 22,22c0,12.15026 -9.84974,22 -22,22c-12.15026,0 -22,-9.84974 -22,-22z" id="base 1 5 1" fill="none" stroke-width="1"></path><path d="M2,24c0,-12.15026 9.84974,-22 22,-22c12.15026,0 22,9.84974 22,22c0,12.15026 -9.84974,22 -22,22c-12.15026,0 -22,-9.84974 -22,-22z" id="base 1 1 1" fill="none" stroke-width="1"></path><g fill="#000000" stroke-width="1" font-family="Roboto, sans-serif" font-weight="400" font-size="14" text-anchor="start"><g><g><g></g></g><g><g></g></g><g><g></g></g><g><g></g></g><g><g></g></g><g><g></g></g><g><g></g></g><g><g></g></g><g><g></g></g><g><g></g></g><g><g></g></g><g><g></g></g></g></g><rect x="2" y="2" width="44" height="22" fill="none" stroke-width="1"></rect><path d="M2,24v-22h44v22z" fill="none" stroke-width="1"></path><path d="M2,24v-22h44v22z" fill="none" stroke-width="1"></path><path d="M2,24v-22h44v22z" fill="none" stroke-width="1"></path><path d="M2,24v-22h44v22z" fill="none" stroke-width="1"></path><g fill="#000000" stroke-width="1" font-family="Roboto, sans-serif" font-weight="400" font-size="14" text-anchor="start"></g><rect x="2" y="2" width="44" height="22" fill="none" stroke-width="1"></rect><path d="M2,24v-22h44v22z" fill="none" stroke-width="1"></path><path d="M2,24v-22h44v22z" fill="none" stroke-width="1"></path><path d="M2,24v-22h44v22z" fill="none" stroke-width="1"></path><path d="M2,24v-22h44v22z" fill="none" stroke-width="1"></path><g fill="#000000" stroke-width="1" font-family="Roboto, sans-serif" font-weight="400" font-size="14" text-anchor="start"></g><rect x="2" y="2" width="44" height="22" fill="none" stroke-width="1"></rect><path d="M2,24v-22h44v22z" fill="none" stroke-width="1"></path><path d="M2,24v-22h44v22z" fill="none" stroke-width="1"></path><path d="M2,24v-22h44v22z" fill="none" stroke-width="1"></path><path d="M5,7c0,-1.10457 0.89543,-2 2,-2h34c1.10457,0 2,0.89543 2,2v17h-38z" id="base 1 10 1" fill-opacity="0.1" fill="#000000" stroke-width="1"></path><path d="M2,24v-22h44v22z" fill="none" stroke-width="1"></path></g></svg>