<?xml version="1.0" encoding="UTF-8" standalone="no"?>
<!DOCTYPE svg PUBLIC "-//W3C//DTD SVG 1.1//EN" "http://www.w3.org/Graphics/SVG/1.1/DTD/svg11.dtd">
<svg version="1.1" xmlns="http://www.w3.org/2000/svg" xmlns:xlink="http://www.w3.org/1999/xlink" preserveAspectRatio="xMidYMid meet" viewBox="100.029702970297 448.52475247524745 337.65346534653463 49.00000000000006" width="333.65" height="45"><defs><path d="M111.03 467.52C111.03 467.52 111.03 467.52 111.03 467.52C111.03 475.92 111.03 480.59 111.03 481.52C111.03 481.52 111.03 481.52 111.03 481.52C107.43 481.52 105.43 481.52 105.03 481.52C105.03 481.52 105.03 481.52 105.03 481.52C105.03 473.12 105.03 468.46 105.03 467.52C105.03 467.52 105.03 467.52 105.03 467.52C108.63 467.52 110.63 467.52 111.03 467.52Z" id="c3JwUl2724"></path><path d="M124.03 467.52C124.03 467.52 124.03 467.52 124.03 467.52C124.03 475.92 124.03 480.59 124.03 481.52C124.03 481.52 124.03 481.52 124.03 481.52C120.43 481.52 118.43 481.52 118.03 481.52C118.03 481.52 118.03 481.52 118.03 481.52C118.03 473.12 118.03 468.46 118.03 467.52C118.03 467.52 118.03 467.52 118.03 467.52C121.63 467.52 123.63 467.52 124.03 467.52Z" id="b3YtqT9Bw"></path><path d="M141.03 485.52C141.03 485.52 141.03 485.52 141.03 485.52C141.03 489.12 141.03 491.12 141.03 491.52C141.03 491.52 141.03 491.52 141.03 491.52C117.03 491.52 103.7 491.52 101.03 491.52C101.03 491.52 101.03 491.52 101.03 491.52C101.03 487.92 101.03 485.92 101.03 485.52C101.03 485.52 101.03 485.52 101.03 485.52C125.03 485.52 138.36 485.52 141.03 485.52Z" id="b42p9ahtB2"></path><path d="M137.03 467.52C137.03 467.52 137.03 467.52 137.03 467.52C137.03 475.92 137.03 480.59 137.03 481.52C137.03 481.52 137.03 481.52 137.03 481.52C133.43 481.52 131.43 481.52 131.03 481.52C131.03 481.52 131.03 481.52 131.03 481.52C131.03 473.12 131.03 468.46 131.03 467.52C131.03 467.52 131.03 467.52 131.03 467.52C134.63 467.52 136.63 467.52 137.03 467.52Z" id="c9fHgbxzx"></path><path d="M101.03 459.52L101.03 463.52L141.03 463.52L141.03 459.52L121.03 449.52L101.03 459.52Z" id="a1fQR8MF5a"></path><path d="M176.47 463.2C179.35 466.1 181.15 470.1 181.15 474.52C181.15 483.36 173.99 490.52 165.15 490.52C156.31 490.52 149.15 483.36 149.15 474.52C149.15 466.36 155.25 459.64 163.15 458.66C163.15 459.07 163.15 462.3 163.15 462.7C157.47 463.66 153.15 468.58 153.15 474.52C153.15 481.14 158.53 486.52 165.15 486.52C171.77 486.52 177.15 481.14 177.15 474.52C177.15 471.2 175.81 468.2 173.63 466.04C173.35 466.33 171.09 468.58 170.81 468.86C172.25 470.32 173.15 472.32 173.15 474.52C173.15 478.94 169.57 482.52 165.15 482.52C160.73 482.52 157.15 478.94 157.15 474.52C157.15 470.8 159.71 467.7 163.15 466.8C163.15 467.23 163.15 470.66 163.15 471.08C161.95 471.78 161.15 473.04 161.15 474.52C161.15 476.72 162.95 478.52 165.15 478.52C167.35 478.52 169.15 476.72 169.15 474.52C169.15 473.04 168.35 471.76 167.15 471.08C167.15 469.98 167.15 464.46 167.15 454.52C165.95 454.52 165.28 454.52 165.15 454.52C154.11 454.52 145.15 463.48 145.15 474.52C145.15 485.56 154.11 494.52 165.15 494.52C176.19 494.52 185.15 485.56 185.15 474.52C185.15 469 182.91 464 179.29 460.38C178.72 460.95 176.75 462.92 176.47 463.2Z" id="f4l4ZgmN4m"></path><path d="M193.15 458.52L193.15 462.52L225.15 462.52L225.15 458.52L193.15 458.52ZM227.15 474.52L225.15 464.52L193.15 464.52L191.15 474.52L191.15 478.52L193.15 478.52L193.15 490.52L213.15 490.52L213.15 478.52L221.15 478.52L221.15 490.52L225.15 490.52L225.15 478.52L227.15 478.52L227.15 474.52ZM197.15 486.52L197.15 478.52L209.15 478.52L209.15 486.52L197.15 486.52Z" id="b2QhcmYW1"></path><path d="M233.47 474.52C233.47 485.56 242.43 494.52 253.47 494.52C264.51 494.52 273.47 485.56 273.47 474.52C273.47 463.48 264.51 454.52 253.47 454.52C242.43 454.52 233.47 463.48 233.47 474.52ZM251.47 484.52L251.47 472.52L255.47 472.52L255.47 484.52L251.47 484.52ZM251.47 468.52L251.47 464.52L255.47 464.52L255.47 468.52L251.47 468.52Z" id="c5V139GR3o"></path><path d="M302.26 458.52C302.26 460.72 300.46 462.52 298.26 462.52C296.06 462.52 294.26 460.72 294.26 458.52C294.26 456.32 296.06 454.52 298.26 454.52C300.46 454.52 302.26 456.32 302.26 458.52ZM304.26 468.52L304.26 494.52L300.26 494.52L300.26 482.52L296.26 482.52L296.26 494.52L292.26 494.52L292.26 468.52L280.26 468.52L280.26 464.52L316.26 464.52L316.26 468.52L304.26 468.52Z" id="bHSGZmipv"></path><path d="M390.68 456.52L388.68 460.52C384.77 460.52 382.6 460.52 382.16 460.52C383.12 461.68 383.84 463.04 384.26 464.52C384.69 464.52 386.83 464.52 390.68 464.52L388.68 468.52C386.28 468.52 384.95 468.52 384.68 468.52C384.18 473.66 380.16 477.78 375.08 478.44C375.08 478.45 375.08 478.48 375.08 478.52L373.68 478.52L385.68 492.52L380.68 492.52L368.68 478.52L368.68 474.52L373.68 474.52C373.68 474.52 373.68 474.52 373.68 474.52C377.2 474.52 380.12 471.92 380.6 468.52C379.81 468.52 375.84 468.52 368.68 468.52L370.68 464.52C376.28 464.52 379.38 464.52 380 464.52C378.88 462.16 376.48 460.52 373.68 460.52C373.35 460.52 371.68 460.52 368.68 460.52L370.68 456.52L390.68 456.52Z" id="dhzJxYtvI"></path><path d="M411.16 480.52C411.93 480.52 415.77 480.52 422.68 480.52L422.68 476.52C414.98 476.52 410.7 476.52 409.84 476.52C409.74 475.86 409.68 475.2 409.68 474.52C409.68 473.84 409.74 473.18 409.84 472.52C410.7 472.52 414.98 472.52 422.68 472.52L422.68 468.52C415.77 468.52 411.93 468.52 411.16 468.52C413.32 464.36 417.68 461.52 422.68 461.52C425.9 461.52 428.86 462.7 431.14 464.66C431.5 464.31 434.33 461.48 434.68 461.12C431.5 458.26 427.28 456.52 422.68 456.52C414.84 456.52 408.2 461.54 405.72 468.52C405.25 468.52 402.91 468.52 398.68 468.52L398.68 472.52C402.36 472.52 404.4 472.52 404.8 472.52C404.72 473.18 404.68 473.84 404.68 474.52C404.68 475.2 404.72 475.86 404.8 476.52C404.4 476.52 402.36 476.52 398.68 476.52L398.68 480.52C402.91 480.52 405.25 480.52 405.72 480.52C408.2 487.5 414.84 492.52 422.68 492.52C427.3 492.52 431.5 490.78 434.68 487.92C434.33 487.57 431.48 484.74 431.12 484.38C428.86 486.34 425.92 487.52 422.68 487.52C417.66 487.52 413.32 484.68 411.16 480.52Z" id="a5HW15BF48"></path><path d="M320 474.52C320 485.56 328.96 494.52 340 494.52C351.04 494.52 360 485.56 360 474.52C360 463.48 351.04 454.52 340 454.52C328.96 454.52 320 463.48 320 474.52ZM338 484.52L338 472.52L342 472.52L342 484.52L338 484.52ZM338 468.52L338 464.52L342 464.52L342 468.52L338 468.52Z" id="b15Px71m0C"></path></defs><g><g><use xlink:href="#c3JwUl2724" opacity="1" fill="#000000" fill-opacity="1"></use><g><use xlink:href="#c3JwUl2724" opacity="1" fill-opacity="0" stroke="#000000" stroke-width="1" stroke-opacity="0"></use></g></g><g><use xlink:href="#b3YtqT9Bw" opacity="1" fill="#000000" fill-opacity="1"></use><g><use xlink:href="#b3YtqT9Bw" opacity="1" fill-opacity="0" stroke="#000000" stroke-width="1" stroke-opacity="0"></use></g></g><g><use xlink:href="#b42p9ahtB2" opacity="1" fill="#000000" fill-opacity="1"></use><g><use xlink:href="#b42p9ahtB2" opacity="1" fill-opacity="0" stroke="#000000" stroke-width="1" stroke-opacity="0"></use></g></g><g><use xlink:href="#c9fHgbxzx" opacity="1" fill="#000000" fill-opacity="1"></use><g><use xlink:href="#c9fHgbxzx" opacity="1" fill-opacity="0" stroke="#000000" stroke-width="1" stroke-opacity="0"></use></g></g><g><use xlink:href="#a1fQR8MF5a" opacity="1" fill="#000000" fill-opacity="1"></use><g><use xlink:href="#a1fQR8MF5a" opacity="1" fill-opacity="0" stroke="#000000" stroke-width="1" stroke-opacity="0"></use></g></g><g><use xlink:href="#f4l4ZgmN4m" opacity="1" fill="#000000" fill-opacity="1"></use><g><use xlink:href="#f4l4ZgmN4m" opacity="1" fill-opacity="0" stroke="#000000" stroke-width="1" stroke-opacity="0"></use></g></g><g><use xlink:href="#b2QhcmYW1" opacity="1" fill="#000000" fill-opacity="1"></use><g><use xlink:href="#b2QhcmYW1" opacity="1" fill-opacity="0" stroke="#000000" stroke-width="1" stroke-opacity="0"></use></g></g><g><use xlink:href="#c5V139GR3o" opacity="1" fill="#000000" fill-opacity="1"></use><g><use xlink:href="#c5V139GR3o" opacity="1" fill-opacity="0" stroke="#000000" stroke-width="1" stroke-opacity="0"></use></g></g><g><use xlink:href="#bHSGZmipv" opacity="1" fill="#000000" fill-opacity="1"></use><g><use xlink:href="#bHSGZmipv" opacity="1" fill-opacity="0" stroke="#000000" stroke-width="1" stroke-opacity="0"></use></g></g><g><use xlink:href="#dhzJxYtvI" opacity="1" fill="#000000" fill-opacity="1"></use><g><use xlink:href="#dhzJxYtvI" opacity="1" fill-opacity="0" stroke="#000000" stroke-width="1" stroke-opacity="0"></use></g></g><g><use xlink:href="#a5HW15BF48" opacity="1" fill="#000000" fill-opacity="1"></use><g><use xlink:href="#a5HW15BF48" opacity="1" fill-opacity="0" stroke="#000000" stroke-width="1" stroke-opacity="0"></use></g></g><g><use xlink:href="#b15Px71m0C" opacity="1" fill="#000000" fill-opacity="1"></use><g><use xlink:href="#b15Px71m0C" opacity="1" fill-opacity="0" stroke="#000000" stroke-width="1" stroke-opacity="0"></use></g></g></g></svg>